<?xml version="1.0" encoding="utf-8"?>
<!-- Generator: Adobe Illustrator 27.5.0, SVG Export Plug-In . SVG Version: 6.00 Build 0)  -->
<svg version="1.1" id="Layer_1" xmlns="http://www.w3.org/2000/svg" xmlns:xlink="http://www.w3.org/1999/xlink" x="0px" y="0px"
	 viewBox="0 0 450 450" style="enable-background:new 0 0 450 450;" xml:space="preserve">
<g>
	<g>
		<path style="fill:#333333;" d="M59.123,250.783c0-12.866,9.089-28.545,20.302-35.016c4.987-2.88,9.549-3.443,13.084-2.06
			l0.052-0.042l7.273,3.639l-3.233-0.537c1.97,2.451,3.125,6.019,3.125,10.574c0,12.867-9.087,28.542-20.3,35.018
			c-4.482,2.588-8.616,3.285-11.974,2.399l1.532,2.531c-3.141-1.617-5.26-4.001-6.328-5.42
			C60.426,259.418,59.123,255.652,59.123,250.783z"/>
		<g>
			<path style="fill:#22C55E;" d="M104.845,230.708c0-12.867-9.089-18.047-20.302-11.576c-11.212,6.476-20.3,22.152-20.3,35.02
				c-0.002,12.867,9.087,18.047,20.3,11.571C95.756,259.253,104.843,243.575,104.845,230.708z"/>
			<path style="fill:#333333;" d="M75.428,269.264c-3.545,0-6.542-1.4-8.666-4.046c-2.139-2.668-3.269-6.492-3.267-11.064
				c0-13.084,9.275-29.085,20.675-35.669c3.32-1.916,6.511-2.888,9.488-2.888c7.252,0,11.939,5.933,11.939,15.113
				c-0.002,13.087-9.278,29.086-20.677,35.666C81.598,268.293,78.404,269.264,75.428,269.264z M93.656,217.095
				c-2.709,0-5.649,0.904-8.738,2.686c-10.986,6.345-19.925,21.764-19.925,34.371c0,4.228,1.016,7.728,2.939,10.126
				c3.442,4.287,9.636,4.61,16.237,0.794c10.985-6.339,19.925-21.756,19.927-34.365C104.096,222.312,100.096,217.095,93.656,217.095
				z"/>
		</g>
		<path style="fill:#22C55E;" d="M97.189,229.318c-3.111-2.14-7.602-2.017-12.598,0.867c-5.067,2.927-9.615,8.093-12.73,13.923
			L97.189,229.318z"/>
		<path style="fill:#22C55E;" d="M93.296,236.977c-2.743-1.499-5.974-0.622-8.705,0.976c-4.364,2.552-6.99,6.075-9.148,9.13
			L93.296,236.977z"/>
		<path style="fill:#22C55E;" d="M88.861,244.758c-1.749-0.33-3.03,0.113-4.329,0.793c-1.855,0.971-3.028,2.446-4.188,3.723
			L88.861,244.758z"/>
		<g>
			<path style="fill:#333333;" d="M71.86,246.126c0.485-0.278,0.969-0.788,1.315-1.439c2.896-5.416,7.056-9.966,11.415-12.483
				c4.294-2.477,8.409-2.76,11.298-0.778c0.653,0.448,1.767-0.134,2.484-1.299c0.721-1.164,0.775-2.47,0.123-2.922
				c-3.554-2.439-8.621-2.09-13.904,0.962c-5.366,3.097-10.484,8.696-14.048,15.36c-0.643,1.207-0.577,2.447,0.148,2.768
				C71.026,246.442,71.445,246.367,71.86,246.126z"/>
			<path style="fill:#333333;" d="M93.296,238.994c0.457-0.264,0.912-0.728,1.258-1.334c0.679-1.188,0.665-2.458-0.028-2.837
				c-2.684-1.466-6.17-1.15-9.95,1.117c-4.76,2.786-7.746,6.678-10.171,10.111c-0.785,1.113-0.957,2.47-0.382,3.04
				c0.57,0.575,1.673,0.132,2.458-0.976c2.156-3.055,4.405-5.978,8.121-8.15c2.043-1.209,4.88-2.243,7.463-0.834
				C92.405,239.314,92.853,239.251,93.296,238.994z"/>
			<path style="fill:#333333;" d="M88.861,246.777c0.568-0.325,1.126-0.966,1.466-1.745c0.537-1.239,0.32-2.366-0.49-2.517
				c-2.177-0.41-3.796,0.224-5.222,0.971c-2.052,1.07-3.45,2.636-4.572,3.894l-0.429,0.476c-0.884,0.971-1.275,2.394-0.872,3.177
				c0.401,0.787,1.447,0.632,2.328-0.34l0.476-0.533c0.928-1.037,1.72-1.928,2.903-2.545c1.093-0.57,2.05-0.872,3.436-0.613
				C88.187,247.06,88.524,246.975,88.861,246.777z"/>
			<path style="fill:#333333;" d="M87.169,252.697c0-1.885-1.331-2.644-2.974-1.697c-1.645,0.952-2.979,3.247-2.976,5.132
				c0,1.885,1.332,2.644,2.976,1.697C85.837,256.882,87.169,254.582,87.169,252.697z"/>
		</g>
	</g>
	<g>
		<g id="Laptop">
			<g>
				<path style="fill:#333333;" d="M318.953,194.072l-95.405,55.372c-1.605,0.931-3.08,2.616-4.053,4.086
					c-0.511,0.943-1.013,2.361-1.15,4.393v62.111c0,6.061,2.708,7.628,6.167,5.632l95.766-55.378c2.764-1.6,4.477-5.496,4.477-8.675
					v-64.021C324.755,193.62,322.41,192.074,318.953,194.072z"/>
				<path style="fill:#333333;" d="M221.194,322.521v-64.022c0-3.177,1.409-7.056,4.176-8.653l94.599-55.373
					c3.464-1.999,4.991-0.452,4.991,3.521v64.022c0,3.177-1.414,7.075-4.181,8.677l-94.597,55.373
					C222.732,328.061,221.194,326.491,221.194,322.521z"/>
				<path style="fill:#22C55E;" d="M324.128,199.194v62.599c0,0.401-0.278,0.881-0.627,1.082l-100.858,58.229
					c-0.346,0.198-0.625,0.04-0.625-0.358v-62.598c0-0.396,0.278-0.879,0.625-1.082l100.858-58.227
					C323.85,198.637,324.128,198.799,324.128,199.194z"/>
				<g>
					<path style="fill:#FAF8F3;" d="M324.128,202.639v-3.444c0-0.396-0.278-0.557-0.627-0.356l-100.858,58.227
						c-0.346,0.203-0.625,0.686-0.625,1.082v3.443L324.128,202.639z"/>
					<path style="fill:#333333;" d="M221.415,262.634v-4.487c0-0.615,0.388-1.289,0.923-1.603l100.862-58.228
						c0.73-0.427,1.533,0.057,1.532,0.878v3.793l-0.302,0.173L221.415,262.634z M323.525,199.504l-100.58,58.085
						c-0.158,0.092-0.323,0.375-0.323,0.558v2.399l100.903-58.257V199.504z"/>
				</g>
				<g>
					<path style="fill:#FAF8F3;" d="M224.135,258.277c0-0.375,0.266-0.834,0.591-1.025c0.325-0.186,0.591-0.035,0.591,0.342
						c0,0.372-0.266,0.832-0.591,1.018C224.401,258.8,224.135,258.654,224.135,258.277z"/>
					<path style="fill:#FAF8F3;" d="M226.237,257.059c0-0.375,0.269-0.832,0.599-1.02c0.325-0.188,0.589-0.036,0.589,0.339
						c0,0.372-0.264,0.83-0.589,1.018C226.505,257.584,226.237,257.433,226.237,257.059z"/>
					<path style="fill:#FAF8F3;" d="M228.348,255.845c0-0.377,0.262-0.834,0.589-1.023c0.33-0.188,0.596-0.038,0.596,0.337
						c0,0.377-0.266,0.832-0.596,1.02C228.61,256.368,228.348,256.217,228.348,255.845z"/>
				</g>
				<g id="down_1_">
					<path style="fill:#333333;" d="M390.874,305.961v-2.333c0.035-1.049-0.636-2.102-2.017-2.901l-56.683-32.82
						c-0.339-0.219-0.683-0.396-1.018-0.561c-0.585-0.254-1.145-0.448-1.671-0.598c-2.213-0.526-4.171,0-5.333,0.476l-5.646,2.913
						l-93.55,54.009c-1.367,0.792-2.071,1.824-2.109,2.863l-0.005,2.418c-0.016,1.051,0.66,2.102,2.031,2.896l55.444,32.01
						c3.443,1.986,9.068,1.937,12.528-0.064l95.911-55.371c1.355-0.787,2.067-1.81,2.119-2.837v-0.049
						C390.874,305.994,390.874,305.975,390.874,305.961z"/>
					<g>
						<path id="_x31__3_" style="fill:#FAF8F3;" d="M388.857,300.726l-56.683-32.82c-0.339-0.219-0.683-0.396-1.018-0.561
							c-0.585-0.254-1.145-0.448-1.671-0.598c-2.213-0.526-4.171,0-5.333,0.476l-5.646,2.913l-93.55,54.009
							c-2.764,1.598-2.833,4.209-0.083,5.797l55.444,32.012c3.443,1.989,9.068,1.937,12.528-0.064l95.911-55.373
							C391.522,304.917,391.612,302.315,388.857,300.726z"/>
						<path id="_x31__2_" style="fill:#333333;" d="M327.601,267.734c0.544,0,1.084,0.064,1.551,0.172
							c0.533,0.153,1.031,0.332,1.469,0.521c0.295,0.146,0.587,0.306,0.885,0.5l0.643,0.4l0.034-0.021l56.069,32.467
							c0.9,0.519,1.416,1.171,1.416,1.789c0.002,0.655-0.551,1.353-1.518,1.911l-95.913,55.373
							c-1.501,0.867-3.602,1.367-5.764,1.367c-2.128,0-4.102-0.464-5.556-1.303l-55.444-32.012
							c-0.905-0.523-1.423-1.183-1.423-1.808c0-0.655,0.549-1.348,1.506-1.902l93.5-53.981l5.551-2.868
							C325.283,268.064,326.348,267.734,327.601,267.734z M327.601,266.527c-1.419,0-2.632,0.361-3.45,0.695l-5.646,2.913
							l-93.55,54.009c-2.764,1.598-2.833,4.209-0.083,5.797l55.444,32.012c1.697,0.98,3.924,1.466,6.159,1.466
							c2.302,0,4.614-0.514,6.369-1.53l95.911-55.373c2.767-1.6,2.856-4.202,0.101-5.79l-56.683-32.82
							c-0.339-0.219-0.683-0.396-1.018-0.561c-0.585-0.254-1.145-0.448-1.671-0.598
							C328.831,266.591,328.198,266.527,327.601,266.527z"/>
					</g>
					<g>
						<path style="fill:#414042;" d="M318.646,274.915c-0.455-0.264-0.452-0.688,0.005-0.947c0.452-0.264,1.188-0.264,1.638-0.005
							c0.448,0.259,0.448,0.683-0.005,0.95C319.832,275.174,319.094,275.174,318.646,274.915z"/>
						<path style="fill:#414042;" d="M321.568,273.223c-0.452-0.257-0.448-0.686,0.007-0.943c0.455-0.264,1.192-0.264,1.642-0.007
							c0.452,0.262,0.448,0.686-0.007,0.95C322.756,273.482,322.021,273.482,321.568,273.223z"/>
						<path style="fill:#414042;" d="M324.495,271.535c-0.448-0.259-0.445-0.688,0.005-0.947c0.457-0.264,1.19-0.264,1.64-0.005
							c0.455,0.264,0.452,0.686-0.007,0.95C325.681,271.797,324.95,271.797,324.495,271.535z"/>
					</g>
					<path style="fill:#FAF8F3;" d="M316.403,337.294l-14.392-8.312c-0.756-0.436-0.879-1.355-0.118-1.798l27.586-15.926
						c1.146-0.658,3.354-0.589,4.49,0.066l14.389,8.307c0.759,0.441,1.129,1.504,0.368,1.942l-27.589,15.928
						C319.999,338.159,317.541,337.949,316.403,337.294z"/>
					<path style="fill:#414042;" d="M246.155,326.859c0.344,0.198,0.344,0.523-0.002,0.721l-4.968,2.868
						c-0.342,0.201-0.91,0.201-1.251,0.002l-4.336-2.507c-0.349-0.198-0.346-0.521,0.005-0.721l4.961-2.866
						c0.346-0.203,0.907-0.205,1.251-0.002L246.155,326.859z M249.937,319.664c-0.344-0.198-0.907-0.196-1.251,0.002l-4.968,2.866
						c-0.349,0.2-0.351,0.525-0.002,0.726l4.339,2.503c0.344,0.198,0.905,0.198,1.254,0l4.965-2.866
						c0.344-0.203,0.344-0.528,0.002-0.726L249.937,319.664z M258.056,314.974c-0.344-0.195-0.905-0.195-1.249,0.005l-4.968,2.868
						c-0.349,0.198-0.349,0.521-0.005,0.721l4.341,2.503c0.342,0.203,0.905,0.2,1.251,0l4.966-2.866
						c0.344-0.203,0.346-0.526,0.002-0.724L258.056,314.974z M266.174,310.287c-0.342-0.198-0.905-0.198-1.247,0.002l-4.965,2.868
						c-0.346,0.198-0.351,0.523-0.005,0.721l4.338,2.508c0.344,0.196,0.903,0.193,1.249-0.005l4.965-2.866
						c0.346-0.202,0.349-0.523,0.005-0.721L266.174,310.287z M274.469,305.499c-0.344-0.198-0.902-0.198-1.249,0.002l-4.968,2.868
						c-0.347,0.203-0.349,0.523-0.005,0.726l4.343,2.503c0.34,0.198,0.9,0.198,1.245-0.005l4.967-2.866
						c0.346-0.2,0.349-0.523,0.002-0.721L274.469,305.499z M282.585,300.809c-0.342-0.193-0.898-0.193-1.244,0.005l-4.968,2.868
						c-0.346,0.201-0.349,0.523-0.002,0.721l4.341,2.505c0.337,0.198,0.9,0.198,1.244-0.002l4.965-2.868
						c0.349-0.198,0.351-0.521,0-0.719L282.585,300.809z M290.709,296.124c-0.342-0.198-0.907-0.198-1.247,0l-4.972,2.868
						c-0.346,0.198-0.349,0.526,0,0.724l4.341,2.503c0.342,0.203,0.9,0.203,1.247,0l4.961-2.87c0.351-0.198,0.354-0.521,0.009-0.716
						L290.709,296.124z M298.825,291.437c-0.342-0.2-0.9-0.2-1.249,0.002l-4.963,2.866c-0.346,0.198-0.349,0.523-0.007,0.721
						l4.346,2.508c0.339,0.198,0.9,0.198,1.247-0.005l4.97-2.866c0.344-0.198,0.347-0.523,0.002-0.726L298.825,291.437z
						 M306.951,286.745c-0.346-0.198-0.905-0.193-1.251,0.005l-4.966,2.866c-0.351,0.201-0.351,0.526-0.002,0.721l4.336,2.507
						c0.342,0.198,0.907,0.198,1.254,0l4.965-2.87c0.346-0.2,0.349-0.523,0.004-0.719L306.951,286.745z M315.069,282.06
						c-0.344-0.198-0.905-0.198-1.249,0.002l-4.965,2.866c-0.349,0.2-0.349,0.525-0.003,0.721l4.336,2.505
						c0.342,0.203,0.905,0.198,1.251,0l4.968-2.868c0.344-0.198,0.344-0.526,0-0.721L315.069,282.06z M323.362,277.271
						c-0.342-0.195-0.902-0.195-1.251,0l-4.961,2.868c-0.349,0.2-0.349,0.523-0.005,0.724l4.339,2.503
						c0.342,0.203,0.905,0.198,1.247,0l4.968-2.868c0.351-0.198,0.354-0.523,0.005-0.719L323.362,277.271z M331.48,272.582
						c-0.339-0.198-0.903-0.198-1.247,0.002l-4.965,2.868c-0.349,0.203-0.351,0.523-0.002,0.724l4.338,2.505
						c0.344,0.198,0.905,0.198,1.247-0.002l4.965-2.87c0.351-0.198,0.354-0.521,0.007-0.719L331.48,272.582z M249.395,328.73
						c-0.344-0.2-0.905-0.2-1.251,0.005l-4.965,2.866c-0.346,0.198-0.346,0.523-0.005,0.721l4.343,2.508
						c0.344,0.193,0.905,0.193,1.251-0.002l4.961-2.868c0.349-0.2,0.351-0.528,0.005-0.721L249.395,328.73z M257.518,324.04
						c-0.349-0.198-0.905-0.196-1.251,0.002l-4.968,2.868c-0.347,0.198-0.349,0.523-0.005,0.721l4.341,2.507
						c0.344,0.198,0.905,0.198,1.251-0.005l4.965-2.863c0.347-0.2,0.349-0.525,0.005-0.724L257.518,324.04z M265.637,319.353
						c-0.342-0.196-0.905-0.196-1.249,0.002l-4.965,2.866c-0.349,0.203-0.349,0.523-0.005,0.721l4.339,2.508
						c0.344,0.2,0.905,0.198,1.249,0l4.965-2.866c0.349-0.203,0.349-0.526,0.005-0.726L265.637,319.353z M273.758,314.666
						c-0.342-0.198-0.907-0.198-1.249,0l-4.967,2.868c-0.349,0.2-0.351,0.526-0.007,0.723l4.341,2.503
						c0.349,0.2,0.907,0.198,1.251,0l4.965-2.871c0.349-0.198,0.351-0.523,0.002-0.719L273.758,314.666z M282.048,309.875
						c-0.346-0.196-0.902-0.196-1.251,0.002l-4.965,2.87c-0.346,0.198-0.349,0.521-0.005,0.721l4.346,2.508
						c0.342,0.195,0.903,0.195,1.249-0.005l4.963-2.868c0.351-0.2,0.351-0.523,0.007-0.723L282.048,309.875z M290.169,305.188
						c-0.342-0.198-0.905-0.196-1.254,0.004l-4.961,2.866c-0.349,0.2-0.351,0.523-0.007,0.721l4.341,2.507
						c0.344,0.198,0.907,0.198,1.249,0l4.968-2.873c0.344-0.198,0.349-0.521,0.005-0.719L290.169,305.188z M298.29,300.503
						c-0.342-0.203-0.9-0.198-1.249,0l-4.97,2.866c-0.344,0.198-0.344,0.523-0.005,0.726l4.348,2.503
						c0.339,0.198,0.898,0.198,1.244,0l4.97-2.866c0.342-0.203,0.344-0.523,0-0.723L298.29,300.503z M306.411,295.813
						c-0.344-0.203-0.905-0.198-1.251,0.002l-4.96,2.868c-0.351,0.198-0.354,0.523-0.007,0.721l4.343,2.503
						c0.337,0.2,0.9,0.2,1.245,0l4.965-2.866c0.349-0.2,0.351-0.523,0.003-0.726L306.411,295.813z M314.529,291.123
						c-0.344-0.198-0.905-0.195-1.247,0.003l-4.97,2.868c-0.347,0.198-0.349,0.523-0.003,0.721l4.338,2.507
						c0.344,0.198,0.905,0.195,1.249-0.005l4.968-2.868c0.347-0.2,0.349-0.521,0.002-0.719L314.529,291.123z M322.648,286.434
						c-0.342-0.196-0.902-0.196-1.249,0.005l-4.963,2.866c-0.349,0.2-0.349,0.523-0.005,0.721l4.339,2.507
						c0.342,0.198,0.905,0.198,1.251-0.002l4.965-2.868c0.347-0.198,0.349-0.523,0.002-0.719L322.648,286.434z M330.943,281.65
						c-0.344-0.198-0.905-0.198-1.249,0l-4.968,2.868c-0.344,0.201-0.344,0.521,0,0.721l4.339,2.505
						c0.344,0.198,0.902,0.198,1.244-0.002l4.97-2.868c0.349-0.198,0.354-0.523,0.002-0.719L330.943,281.65z M339.064,276.96
						c-0.339-0.2-0.905-0.2-1.251,0.005l-4.97,2.866c-0.339,0.2-0.342,0.518-0.002,0.721l4.343,2.508
						c0.346,0.198,0.903,0.198,1.252-0.005l4.965-2.868c0.349-0.2,0.351-0.521,0.005-0.721L339.064,276.96z M256.776,332.991
						c-0.342-0.198-0.905-0.198-1.249,0.005l-4.968,2.863c-0.344,0.203-0.349,0.523-0.005,0.723l4.341,2.508
						c0.351,0.198,0.905,0.193,1.251-0.005l4.965-2.866c0.346-0.2,0.346-0.523,0.007-0.721L256.776,332.991z M264.895,328.306
						c-0.342-0.203-0.9-0.203-1.247,0l-4.968,2.868c-0.342,0.2-0.342,0.521-0.005,0.719l4.339,2.507
						c0.349,0.203,0.907,0.203,1.254-0.002l4.965-2.868c0.346-0.198,0.346-0.521,0.005-0.721L264.895,328.306z M273.018,323.616
						c-0.346-0.198-0.9-0.198-1.251,0l-4.965,2.868c-0.344,0.2-0.344,0.523-0.002,0.723l4.341,2.503c0.342,0.2,0.898,0.2,1.247,0
						l4.968-2.868c0.344-0.2,0.344-0.526,0.005-0.724L273.018,323.616z M281.136,318.927c-0.346-0.198-0.903-0.195-1.247,0.005
						l-4.968,2.866c-0.344,0.198-0.349,0.523-0.007,0.721l4.343,2.503c0.346,0.203,0.9,0.203,1.249,0l4.965-2.866
						c0.346-0.198,0.346-0.523,0.002-0.721L281.136,318.927z M289.429,314.138c-0.344-0.198-0.903-0.198-1.249,0.005l-4.961,2.866
						c-0.346,0.2-0.351,0.523-0.007,0.721l4.338,2.505c0.344,0.2,0.905,0.2,1.251-0.002l4.965-2.866
						c0.344-0.202,0.347-0.523,0.003-0.721L289.429,314.138z M297.55,309.453c-0.344-0.203-0.905-0.203-1.247,0l-4.968,2.866
						c-0.344,0.198-0.346,0.523-0.003,0.721l4.336,2.507c0.346,0.198,0.905,0.196,1.251-0.004l4.965-2.866
						c0.346-0.198,0.349-0.523,0.004-0.721L297.55,309.453z M305.673,304.761c-0.344-0.198-0.907-0.198-1.251,0.002l-4.968,2.866
						c-0.339,0.203-0.342,0.528-0.002,0.726l4.336,2.505c0.349,0.2,0.907,0.195,1.256-0.003l4.965-2.868
						c0.346-0.2,0.346-0.526,0.002-0.721L305.673,304.761z M313.796,300.074c-0.346-0.198-0.912-0.198-1.256,0l-4.968,2.87
						c-0.344,0.2-0.344,0.521-0.002,0.721l4.341,2.503c0.346,0.203,0.902,0.2,1.254,0l4.963-2.87
						c0.347-0.198,0.351-0.519,0.005-0.716L313.796,300.074z M321.913,295.384c-0.346-0.198-0.907-0.198-1.251,0.005l-4.963,2.866
						c-0.346,0.203-0.349,0.523-0.005,0.724l4.336,2.505c0.349,0.198,0.907,0.198,1.256-0.005l4.963-2.866
						c0.346-0.2,0.349-0.523,0.002-0.721L321.913,295.384z M330.031,290.699c-0.342-0.2-0.898-0.2-1.249,0.002l-4.965,2.868
						c-0.344,0.198-0.347,0.521-0.005,0.719l4.343,2.507c0.344,0.196,0.9,0.196,1.249-0.002l4.965-2.868
						c0.344-0.2,0.347-0.526,0.003-0.724L330.031,290.699z M338.326,285.911c-0.346-0.2-0.905-0.198-1.251,0l-4.965,2.87
						c-0.351,0.198-0.353,0.519-0.002,0.719l4.339,2.508c0.346,0.195,0.905,0.195,1.251-0.002l4.965-2.868
						c0.344-0.2,0.346-0.523,0.002-0.721L338.326,285.911z M346.445,281.221c-0.342-0.2-0.902-0.198-1.251,0.002l-4.963,2.868
						c-0.346,0.2-0.351,0.523-0.005,0.721l4.338,2.508c0.346,0.195,0.907,0.195,1.254-0.005l4.968-2.868
						c0.339-0.195,0.342-0.521,0-0.719L346.445,281.221z M264.357,337.369c-0.344-0.198-0.9-0.198-1.249,0l-4.968,2.866
						c-0.346,0.203-0.349,0.523-0.005,0.726l4.343,2.503c0.344,0.2,0.9,0.198,1.249-0.002l4.963-2.866
						c0.349-0.2,0.351-0.521,0.012-0.724L264.357,337.369z M272.478,332.68c-0.344-0.198-0.903-0.196-1.254,0.005l-4.963,2.866
						c-0.349,0.198-0.349,0.521-0.002,0.721l4.343,2.507c0.342,0.198,0.898,0.198,1.247-0.005l4.968-2.868
						c0.342-0.2,0.342-0.521,0.005-0.719L272.478,332.68z M280.597,327.99c-0.342-0.198-0.9-0.196-1.247,0.004l-4.965,2.868
						c-0.351,0.2-0.353,0.521-0.005,0.721l4.339,2.505c0.346,0.198,0.902,0.198,1.247,0l4.97-2.868
						c0.346-0.203,0.346-0.523,0.002-0.723L280.597,327.99z M288.717,323.305c-0.342-0.198-0.9-0.198-1.251,0.002l-4.963,2.863
						c-0.349,0.203-0.349,0.523-0.002,0.723l4.338,2.505c0.342,0.198,0.905,0.198,1.251,0l4.965-2.868
						c0.342-0.2,0.344-0.523,0.002-0.724L288.717,323.305z M329.489,299.765c-0.337-0.2-0.9-0.2-1.249,0.002l-4.963,2.866
						c-0.344,0.198-0.346,0.521-0.005,0.721l4.341,2.503c0.344,0.2,0.905,0.2,1.256,0l4.961-2.868
						c0.346-0.2,0.346-0.521,0.002-0.724L329.489,299.765z M337.612,295.075c-0.347-0.2-0.903-0.2-1.251,0.002l-4.965,2.866
						c-0.347,0.203-0.349,0.523-0.007,0.721l4.345,2.508c0.342,0.198,0.9,0.198,1.254,0l4.965-2.87
						c0.344-0.198,0.346-0.523,0.005-0.724L337.612,295.075z M345.908,290.287c-0.346-0.2-0.905-0.198-1.251,0.002l-4.968,2.866
						c-0.344,0.203-0.349,0.523-0.005,0.721l4.341,2.507c0.344,0.198,0.905,0.198,1.251,0l4.968-2.87
						c0.346-0.198,0.346-0.523,0.002-0.719L345.908,290.287z M354.029,285.597c-0.346-0.195-0.907-0.195-1.251,0.002l-4.968,2.866
						c-0.349,0.203-0.349,0.526-0.002,0.726l4.338,2.505c0.342,0.2,0.905,0.198,1.252-0.002l4.965-2.868
						c0.346-0.2,0.346-0.526,0.002-0.719L354.029,285.597z M320.164,304.481l-4.965,2.868l-3.144,1.819l-4.975,2.868
						c0,0,0,0-0.002,0l-3.151,1.819c-0.002,0-0.002,0-0.002,0l-4.965,2.87l-3.151,1.819l-4.968,2.866
						c-0.346,0.198-0.349,0.523-0.002,0.724l4.423,2.552c0.342,0.195,0.902,0.195,1.247-0.002l1.042-0.603l3.921-2.265l3.16-1.819
						l4.961-2.868l3.158-1.822l4.965-2.866l3.151-1.824l4.56-2.63l0.408-0.236c0.349-0.198,0.351-0.523,0.007-0.724l-4.423-2.55
						C321.076,304.278,320.513,304.278,320.164,304.481z"/>
				</g>
				<path id="stick_1_" style="fill:#414042;" d="M313.434,274.257l-69.581,40.175c-1.039,0.599-1.876,0.205-1.876-0.99
					c0-1.19,0.837-2.557,1.878-3.155l69.579-40.176c1.044-0.601,1.883-0.207,1.883,0.985
					C315.316,272.289,314.478,273.656,313.434,274.257z"/>
			</g>
		</g>
		<path style="fill:#333333;" d="M320.918,336.719c-2.133,1.23-5.62,1.23-7.753,0l-10.793-6.231c-2.132-1.232-2.132-3.247,0-4.477
			l23.917-13.81c2.133-1.23,5.621-1.23,7.753,0l10.793,6.231c2.133,1.232,2.133,3.247,0,4.477L320.918,336.719z"/>
	</g>
	<g>
		<g>
			<path style="fill:#333333;" d="M202.305,296.807V92.578c0-6.751-4.742-9.488-10.587-6.112l-72.224,41.699
				c-3.897,2.25-7.057,7.723-7.057,12.224v204.229c0,6.754,4.74,9.492,10.586,6.113l72.224-41.698
				C199.145,306.785,202.305,301.309,202.305,296.807z"/>
			<path style="fill:#333333;" d="M118.296,352.994c-4.053,0-6.674-3.288-6.674-8.375V140.389c0-4.753,3.349-10.554,7.465-12.93
				l72.224-41.699c1.788-1.032,3.515-1.555,5.135-1.555c4.055,0,6.675,3.286,6.675,8.373v204.229c0,4.756-3.35,10.558-7.466,12.933
				l-72.224,41.695C121.643,352.47,119.916,352.994,118.296,352.994z M196.446,85.836c-1.311,0-2.806,0.462-4.32,1.336
				l-72.224,41.699c-3.667,2.116-6.649,7.283-6.649,11.518v204.229c0,4.162,1.931,6.745,5.042,6.747
				c1.311,0,2.806-0.464,4.321-1.339l72.224-41.698c3.668-2.116,6.65-7.284,6.65-11.521V92.578
				C201.49,88.419,199.558,85.836,196.446,85.836z"/>
		</g>
		<g>
			<path style="fill:#FAF8F3;" d="M208.825,299.254V95.024c0-6.752-4.74-9.488-10.586-6.113l-72.224,41.699
				c-3.898,2.251-7.058,7.723-7.058,12.224v204.231c0,6.749,4.741,9.488,10.587,6.113l72.224-41.698
				C205.665,309.227,208.825,303.755,208.825,299.254z"/>
			<path style="fill:#333333;" d="M124.819,355.438c-4.056,0-6.678-3.288-6.678-8.373V142.834c0-4.752,3.35-10.553,7.466-12.93
				l72.224-41.699c1.788-1.031,3.515-1.554,5.135-1.554c4.053,0,6.674,3.286,6.674,8.373v204.23c0,4.751-3.349,10.553-7.465,12.931
				l-72.224,41.698C128.165,354.914,126.438,355.438,124.819,355.438z M202.966,88.281c-1.313,0-2.806,0.462-4.32,1.336
				l-72.224,41.699c-3.667,2.117-6.65,7.284-6.65,11.518v204.231c0,4.159,1.933,6.742,5.045,6.742c1.31,0,2.806-0.462,4.319-1.336
				l72.224-41.695c3.667-2.121,6.649-7.289,6.649-11.521V95.024C208.009,90.865,206.077,88.281,202.966,88.281z"/>
		</g>
		<g>
			<polygon style="fill:#22C55E;" points="130.613,163.724 198.933,127.053 198.933,274.83 130.613,314.902 			"/>
			<path style="fill:#333333;" d="M129.797,316.325V163.236l0.43-0.23l69.521-37.316v149.606l-0.403,0.236L129.797,316.325z
				 M131.428,164.212v149.266l66.689-39.115V128.415L131.428,164.212z"/>
		</g>
		<path style="fill:#333333;" d="M197.847,84.266c0,0,7.877,0.95,10.052,4.754l-3.805-1.901l-9.779,2.309L197.847,84.266z"/>
		<path style="fill:#333333;" d="M114.008,351.269c0,0,5.909,5.09,11.308,4.072l-3.36-1.325l-6.214-8.352L114.008,351.269z"/>
		<path style="fill:#333333;" d="M169.407,123.664c0-2.376-1.678-3.332-3.751-2.136c-2.071,1.194-3.75,4.091-3.75,6.469
			c0,2.374,1.679,3.332,3.75,2.136C167.729,128.936,169.406,126.039,169.407,123.664z"/>
	</g>
	<g>
		<g>
			<g>
				<path style="fill:#333333;" d="M185.394,185.432c0-7.051,4.981-15.642,11.13-19.19l51.182-29.549
					c4.097-2.364,7.419-0.471,7.419,4.229v30.924c0,7.052-4.982,15.646-11.127,19.191l-1.957,1.129l0.048,11.046l-4.57-3.206
					l-0.813,0.477l-4.04-2.903l-39.853,23.008c-4.098,2.365-7.42,0.473-7.42-4.23V185.432z"/>
				<polygon style="fill:#333333;" points="192.72,223.701 187.634,221.15 192.65,214.708 192.65,223.416 				"/>
				<polygon style="fill:#333333;" points="257.512,138.455 252.961,136.179 249.502,146.117 				"/>
			</g>
			<g>
				<g>
					<path style="fill:#FAF8F3;" d="M190.243,187.852v30.932c0,0.266,0.02,0.534,0.037,0.784c0.018,0.266,0.054,0.497,0.106,0.728
						c0.036,0.249,0.088,0.464,0.16,0.676c0.054,0.214,0.143,0.41,0.213,0.606c0.143,0.338,0.303,0.623,0.482,0.89
						c0.231,0.338,0.516,0.623,0.836,0.838c0.801,0.605,1.817,0.854,2.973,0.675c0.818-0.125,1.708-0.426,2.616-0.96l7.653-4.433
						h0.035l31.661-18.293l0.498-0.285l8.631,6.211l0.801,0.569l-0.053-12.192l1.086-0.64l0.872-0.497
						c6.139-3.542,11.123-12.139,11.123-19.188v-30.929c0-1.335-0.267-2.458-0.747-3.294h-0.019
						c-0.124-0.248-0.266-0.444-0.426-0.641c-0.019-0.018-0.019-0.018-0.037-0.034c-0.408-0.5-0.944-0.838-1.548-1.033
						c-0.124-0.052-0.285-0.088-0.428-0.125c-0.497-0.106-1.05-0.125-1.637-0.052c-0.124,0.036-0.266,0.052-0.409,0.088
						c-0.143,0.018-0.267,0.054-0.41,0.106c-0.088,0.035-0.178,0.054-0.266,0.091c-0.231,0.07-0.462,0.16-0.713,0.285
						c-0.247,0.104-0.516,0.23-0.764,0.389l-51.203,29.545C195.228,172.206,190.243,180.803,190.243,187.852z"/>
					<path style="fill:#333333;" d="M255.822,139.454c0.237,0,0.463,0.022,0.692,0.073c0.06,0.014,0.124,0.028,0.272,0.082
						c0.388,0.125,0.699,0.33,0.925,0.607l0.084,0.093c0.103,0.13,0.166,0.227,0.22,0.336l0.26,0.495
						c0.239,0.6,0.364,1.35,0.364,2.202v30.929c0,6.616-4.69,14.705-10.449,18.028l-0.889,0.507l-1.086,0.64l-0.661,0.389
						l0.004,0.767l0.043,9.581l-7.307-5.258l-0.697-0.502l-0.746,0.426l-0.503,0.288l-31.351,18.114h-0.035l-0.311,0.18l-7.66,4.438
						c-0.708,0.416-1.428,0.682-2.143,0.792c-0.177,0.027-0.348,0.04-0.514,0.04c-0.556,0-1.044-0.155-1.511-0.504
						c-0.179-0.12-0.344-0.287-0.472-0.475c-0.146-0.218-0.26-0.428-0.335-0.599l-0.078-0.205c-0.034-0.089-0.072-0.178-0.126-0.376
						c-0.047-0.138-0.08-0.279-0.123-0.54c-0.036-0.166-0.063-0.332-0.081-0.605c-0.013-0.198-0.028-0.407-0.028-0.615v-30.932
						c0-6.616,4.69-14.704,10.455-18.029l51.255-29.576c0.183-0.117,0.381-0.206,0.641-0.318c0.177-0.089,0.339-0.153,0.502-0.202
						l0.085-0.025l0.061-0.025c0.078-0.025,0.154-0.049,0.192-0.065c0.079-0.029,0.106-0.034,0.118-0.036l0.203-0.034l0.083-0.021
						c0.068-0.013,0.135-0.027,0.2-0.041C255.526,139.463,255.676,139.454,255.822,139.454z M255.822,138.119
						c-0.224,0-0.454,0.014-0.689,0.044c-0.124,0.036-0.266,0.052-0.409,0.088c-0.143,0.018-0.267,0.054-0.41,0.106
						c-0.088,0.035-0.178,0.054-0.266,0.091c-0.231,0.07-0.462,0.16-0.713,0.285c-0.247,0.104-0.516,0.23-0.764,0.389
						l-51.203,29.545c-6.138,3.54-11.123,12.137-11.123,19.185v30.932c0,0.266,0.02,0.534,0.037,0.784
						c0.018,0.266,0.054,0.497,0.106,0.728c0.036,0.249,0.088,0.464,0.16,0.676c0.054,0.214,0.143,0.41,0.213,0.606
						c0.143,0.338,0.303,0.623,0.482,0.89c0.231,0.338,0.516,0.623,0.836,0.838c0.63,0.476,1.395,0.732,2.255,0.732
						c0.232,0,0.471-0.019,0.717-0.057c0.818-0.125,1.708-0.426,2.616-0.96l7.653-4.433h0.035l31.661-18.293l0.498-0.285
						l8.631,6.211l0.801,0.569l-0.053-12.192l1.086-0.64l0.872-0.497c6.139-3.542,11.123-12.139,11.123-19.188v-30.929
						c0-1.335-0.267-2.458-0.747-3.294h-0.019c-0.124-0.248-0.266-0.444-0.426-0.641c-0.019-0.018-0.019-0.018-0.037-0.034
						c-0.408-0.5-0.944-0.838-1.548-1.033c-0.124-0.052-0.285-0.088-0.428-0.125C256.471,138.151,256.154,138.119,255.822,138.119z"
						/>
				</g>
			</g>
		</g>
		<g>
			<polygon style="fill:#333333;" points="200.419,186.049 251.62,156.488 251.62,151.692 200.419,181.254 			"/>
			<polygon style="fill:#333333;" points="200.419,195.643 251.62,166.082 251.621,161.284 200.419,190.845 			"/>
			<polygon style="fill:#333333;" points="200.419,205.235 251.621,175.673 251.62,170.877 200.419,200.439 			"/>
		</g>
	</g>
	<g>
		<path style="fill:#333333;" d="M137.123,278.021l0.178,0.141c0.266,0.217,0.562,0.405,0.866,0.575l1.481,0.905
			c0.014,0.014,0.029,0.014,0.04,0.024l1.264,0.754l0.138,0.09v-0.024l0.065-1.037c1.328,0,2.797-0.353,4.342-1.108v8.064
			l2.375,1.485l0.829-1.635l1.112-8.352l1.429-2.818l18.602-10.737c6.614-3.818,11.964-13.06,11.964-20.645
			c0-1.598-0.244-2.988-0.69-4.164l0.792-0.893c-0.217-0.141-0.461-0.613-0.69-0.766l-0.866-0.549l-1.637-1.046
			c-2.194-1.518-5.348-1.445-8.872,0.585l-23.339,13.486c-6.614,3.818-11.974,13.06-11.974,20.644
			C134.532,274.217,135.5,276.616,137.123,278.021z"/>
		<g>
			<path style="fill:#22C55E;" d="M136.904,272.478c0,3.323,1.033,5.774,2.744,7.164c0.014,0.014,0.029,0.014,0.04,0.024
				c0.395,0.306,0.818,0.566,1.264,0.754c0.037,0.024,0.089,0.038,0.138,0.066c1.266,0.509,2.76,0.599,4.407,0.203
				c0.753-0.193,1.558-0.471,2.375-0.867v8.069l0.497-0.985l0.331-0.65l4.917-9.691l18.589-10.737
				c6.613-3.818,11.974-13.06,11.974-20.645c0-3.985-1.479-6.716-3.827-7.852c-2.134-1.06-5.007-0.792-8.147,1.021l-23.339,13.483
				C142.254,255.652,136.904,264.894,136.904,272.478z"/>
			<path style="fill:#333333;" d="M177.573,237.765c0.851,0,1.628,0.172,2.321,0.516c2.053,0.993,3.23,3.509,3.23,6.901
				c0,7.236-5.134,16.088-11.445,19.731L153.09,275.65l-0.272,0.156l-0.143,0.28l-3.746,7.383v-3.648v-1.685l-1.518,0.733
				c-0.688,0.335-1.42,0.601-2.162,0.792c-0.6,0.144-1.185,0.217-1.74,0.217c-0.728,0-1.409-0.125-2.024-0.372l-0.036-0.024
				l-0.085-0.035c-0.342-0.144-0.687-0.351-0.973-0.57l-0.148-0.127l-0.028-0.012c-1.454-1.249-2.253-3.464-2.253-6.259
				c0-7.24,5.13-16.089,11.436-19.73l23.337-13.482C174.436,238.285,176.109,237.765,177.573,237.765z M177.573,236.708
				c-1.615,0-3.441,0.531-5.366,1.643l-23.339,13.483c-6.614,3.818-11.965,13.06-11.965,20.644c0,3.323,1.033,5.774,2.744,7.164
				c0.014,0.014,0.029,0.014,0.04,0.024c0.395,0.306,0.818,0.566,1.264,0.754c0.037,0.024,0.089,0.038,0.138,0.066
				c0.734,0.295,1.546,0.45,2.419,0.45c0.632,0,1.296-0.08,1.988-0.248c0.753-0.193,1.558-0.471,2.375-0.867v8.069l0.497-0.985
				l0.331-0.65l4.917-9.691l18.589-10.737c6.613-3.818,11.974-13.06,11.974-20.645c0-3.985-1.479-6.716-3.827-7.852
				C179.528,236.92,178.592,236.708,177.573,236.708z"/>
		</g>
	</g>
	<g>
		<path style="fill:#333333;" d="M142.431,211.85l2.506,3.531l1.743,0.301v-1.647l2.958-2.292c0.911,0.336,1.939,0.436,3.052,0.308
			l1.695,4.23l1.809,0.315l-0.074-1.316l3.273-1.89l1.632-6.019c1.161-1.16,2.234-2.467,3.187-3.881l4.698-1.805l2.504-6.425
			l-2.96-2.38c0.113-0.812,0.184-1.617,0.184-2.401c0-0.687-0.059-1.321-0.146-1.929l2.997-5.895l-1.299-1.83l0.573-1.326
			l-1.779-0.375l-4.548,3.521c-1.185,0.32-1.964,0.722-3.152,0.882l-0.99-3.008l1.017-1.916l-1.772-0.377l-5.011,2.891l-1.624,5.99
			c-1.151,1.165-2.217,2.477-3.16,3.891l-4.732,1.824l-2.505,6.424l3.049,2.449c-0.095,0.743-0.158,1.482-0.158,2.201
			c0,0.659,0.055,1.27,0.137,1.856L142.431,211.85z M151.32,200.475c0-3.685,2.602-8.167,5.808-10.017
			c3.21-1.854,5.81-0.375,5.81,3.31c0,3.682-2.601,8.163-5.81,10.017C153.922,205.637,151.32,204.158,151.32,200.475z"/>
		<g>
			<path style="fill:#22C55E;" d="M151.393,212.094c0.91,0.335,1.941,0.436,3.052,0.308l1.695,4.229l5.008-2.89l1.633-6.019
				c1.16-1.16,2.233-2.468,3.185-3.88l4.699-1.808l2.505-6.424l-2.961-2.38c0.113-0.812,0.185-1.618,0.183-2.401
				c0-0.687-0.058-1.321-0.146-1.929l2.999-5.895l-2.506-3.53l-4.547,3.521c-0.963-0.361-2.061-0.457-3.249-0.296l-1.65-4.124
				l-5.011,2.893l-1.624,5.99c-1.151,1.165-2.217,2.478-3.16,3.892l-4.731,1.823l-2.505,6.425l3.049,2.447
				c-0.096,0.745-0.159,1.482-0.159,2.201c0,0.66,0.055,1.271,0.135,1.858l-3.099,6.099l2.505,3.531L151.393,212.094z
				 M153.077,200.825c0-3.683,2.601-8.164,5.807-10.017c3.209-1.852,5.81-0.375,5.81,3.311c0,3.681-2.602,8.164-5.81,10.017
				C155.678,205.989,153.077,204.509,153.077,200.825z"/>
			<path style="fill:#333333;" d="M160.81,179.967l1.236,3.091c0.149,0.37,0.506,0.606,0.896,0.606c0.042,0,0.086-0.003,0.13-0.008
				c0.326-0.045,0.644-0.067,0.953-0.067c0.663,0,1.279,0.105,1.828,0.31c0.11,0.041,0.224,0.061,0.338,0.061
				c0.211,0,0.418-0.068,0.59-0.201l3.753-2.906l1.586,2.235l-2.734,5.376c-0.091,0.178-0.124,0.378-0.096,0.576
				c0.092,0.629,0.137,1.215,0.137,1.792c0.001,0.673-0.055,1.414-0.173,2.266c-0.047,0.336,0.086,0.672,0.35,0.885l2.411,1.937
				l-2.094,5.368l-4.302,1.655c-0.184,0.071-0.343,0.197-0.452,0.36c-0.921,1.367-1.954,2.624-3.068,3.738
				c-0.119,0.119-0.204,0.267-0.249,0.43l-1.528,5.635l-3.701,2.135l-1.28-3.196c-0.148-0.369-0.505-0.605-0.896-0.605
				c-0.036,0-0.073,0.001-0.111,0.006c-0.272,0.032-0.538,0.047-0.799,0.047c-0.656,0-1.264-0.101-1.809-0.302
				c-0.108-0.04-0.221-0.059-0.333-0.059c-0.211,0-0.418,0.068-0.59,0.202l-3.905,3.025l-1.586-2.236l2.835-5.579
				c0.088-0.176,0.121-0.374,0.095-0.568c-0.087-0.633-0.127-1.182-0.127-1.727c0-0.614,0.049-1.294,0.152-2.077
				c0.042-0.333-0.091-0.666-0.354-0.876l-2.497-2.004l2.093-5.37l4.334-1.67c0.186-0.072,0.345-0.199,0.456-0.365
				c0.908-1.363,1.933-2.624,3.044-3.749c0.117-0.118,0.202-0.265,0.245-0.426l1.519-5.605L160.81,179.967z M156.276,205.899
				c0.985,0,2.024-0.312,3.09-0.927c3.529-2.038,6.292-6.804,6.292-10.852c0-1.481-0.381-2.739-1.1-3.636
				c-0.743-0.927-1.831-1.438-3.064-1.438c-0.985,0-2.025,0.312-3.092,0.927c-3.527,2.037-6.289,6.805-6.289,10.852
				C152.113,203.908,153.747,205.899,156.276,205.899z M161.292,178.575l-5.011,2.893l-1.624,5.99
				c-1.151,1.165-2.217,2.478-3.16,3.892l-4.731,1.823l-2.505,6.425l3.049,2.447c-0.096,0.745-0.159,1.482-0.159,2.201
				c0,0.66,0.055,1.271,0.135,1.858l-3.099,6.099l2.505,3.531l4.7-3.64c0.656,0.242,1.375,0.362,2.142,0.362
				c0.296,0,0.6-0.019,0.91-0.054l1.695,4.229l5.008-2.89l1.633-6.019c1.16-1.16,2.233-2.468,3.185-3.88l4.699-1.808l2.505-6.424
				l-2.961-2.38c0.113-0.812,0.185-1.618,0.183-2.401c0-0.687-0.058-1.321-0.146-1.929l2.999-5.895l-2.506-3.53l-4.547,3.521
				c-0.662-0.249-1.389-0.371-2.166-0.371c-0.351,0-0.713,0.025-1.083,0.076L161.292,178.575z M156.276,204.935
				c-1.897,0-3.199-1.503-3.199-4.11c0-3.683,2.601-8.164,5.807-10.017c0.939-0.542,1.825-0.799,2.61-0.799
				c1.898,0,3.2,1.502,3.2,4.11c0,3.681-2.602,8.164-5.81,10.017C157.947,204.678,157.061,204.935,156.276,204.935z"/>
		</g>
	</g>
	<g>
		<path style="fill:#333333;" d="M216.636,132.216l2.506,3.531l1.743,0.3v-1.647l2.958-2.292c0.911,0.336,1.939,0.436,3.052,0.308
			l1.695,4.23l1.809,0.315l-0.074-1.316l3.273-1.89l1.632-6.019c1.161-1.16,2.234-2.467,3.187-3.881l4.698-1.805l2.504-6.425
			l-2.96-2.38c0.113-0.812,0.184-1.617,0.184-2.401c0-0.687-0.059-1.321-0.146-1.929l2.996-5.895l-1.298-1.83l0.573-1.326
			l-1.779-0.375l-4.548,3.521c-1.185,0.32-1.964,0.722-3.152,0.882l-0.99-3.008l1.017-1.916l-1.772-0.377l-5.011,2.892l-1.624,5.99
			c-1.151,1.165-2.217,2.477-3.16,3.891l-4.732,1.824l-2.505,6.424l3.049,2.449c-0.096,0.743-0.158,1.482-0.158,2.201
			c0,0.659,0.056,1.27,0.137,1.856L216.636,132.216z M225.525,120.841c0-3.685,2.602-8.167,5.808-10.017
			c3.21-1.854,5.81-0.375,5.81,3.31c0,3.682-2.601,8.163-5.81,10.017C228.127,126.003,225.525,124.523,225.525,120.841z"/>
		<g>
			<path style="fill:#22C55E;" d="M225.598,132.46c0.91,0.335,1.941,0.436,3.052,0.308l1.695,4.229l5.008-2.89l1.633-6.019
				c1.16-1.159,2.233-2.468,3.185-3.88l4.699-1.808l2.505-6.424l-2.961-2.38c0.113-0.812,0.185-1.618,0.183-2.401
				c0-0.687-0.058-1.321-0.146-1.929l2.999-5.895l-2.506-3.53l-4.547,3.521c-0.963-0.361-2.061-0.457-3.249-0.296l-1.65-4.124
				l-5.011,2.893l-1.624,5.989c-1.151,1.165-2.217,2.478-3.16,3.892l-4.731,1.823l-2.505,6.425l3.049,2.447
				c-0.097,0.745-0.159,1.482-0.159,2.201c0,0.66,0.055,1.271,0.135,1.858l-3.099,6.099l2.505,3.531L225.598,132.46z
				 M227.282,121.191c0-3.683,2.601-8.164,5.807-10.017c3.208-1.852,5.81-0.375,5.81,3.311c0,3.681-2.602,8.164-5.81,10.017
				C229.882,126.354,227.282,124.874,227.282,121.191z"/>
			<path style="fill:#333333;" d="M235.015,100.332l1.236,3.091c0.149,0.37,0.506,0.606,0.896,0.606c0.042,0,0.086-0.002,0.13-0.008
				c0.326-0.045,0.644-0.067,0.953-0.067c0.663,0,1.278,0.105,1.827,0.31c0.109,0.041,0.224,0.061,0.338,0.061
				c0.211,0,0.418-0.068,0.59-0.201l3.753-2.906l1.586,2.235l-2.734,5.376c-0.091,0.178-0.124,0.378-0.096,0.576
				c0.092,0.629,0.137,1.215,0.137,1.792c0.001,0.673-0.055,1.414-0.173,2.266c-0.047,0.336,0.086,0.672,0.35,0.885l2.411,1.937
				l-2.094,5.368l-4.302,1.654c-0.184,0.071-0.343,0.197-0.452,0.361c-0.921,1.367-1.954,2.624-3.068,3.737
				c-0.119,0.119-0.204,0.267-0.248,0.43l-1.528,5.635l-3.701,2.135l-1.28-3.195c-0.148-0.369-0.505-0.605-0.895-0.605
				c-0.036,0-0.073,0.001-0.111,0.006c-0.272,0.032-0.538,0.047-0.799,0.047c-0.656,0-1.264-0.101-1.809-0.302
				c-0.108-0.04-0.221-0.059-0.333-0.059c-0.211,0-0.418,0.068-0.59,0.201l-3.905,3.025l-1.586-2.236l2.835-5.579
				c0.088-0.176,0.121-0.374,0.095-0.568c-0.087-0.633-0.127-1.182-0.127-1.727c0-0.614,0.049-1.294,0.152-2.077
				c0.042-0.333-0.091-0.666-0.354-0.875l-2.497-2.004l2.093-5.37l4.334-1.67c0.186-0.072,0.345-0.199,0.456-0.365
				c0.908-1.363,1.932-2.624,3.043-3.749c0.117-0.118,0.201-0.265,0.245-0.425l1.519-5.605L235.015,100.332z M230.481,126.264
				c0.985,0,2.024-0.312,3.09-0.927c3.529-2.038,6.292-6.804,6.292-10.852c0-1.481-0.381-2.738-1.1-3.636
				c-0.743-0.927-1.831-1.438-3.064-1.438c-0.985,0-2.025,0.312-3.092,0.927c-3.527,2.037-6.289,6.805-6.289,10.852
				C226.318,124.273,227.952,126.264,230.481,126.264z M235.497,98.941l-5.011,2.893l-1.624,5.989
				c-1.151,1.165-2.217,2.478-3.16,3.892l-4.731,1.823l-2.505,6.425l3.049,2.447c-0.097,0.745-0.159,1.482-0.159,2.201
				c0,0.66,0.055,1.271,0.135,1.858l-3.099,6.099l2.505,3.531l4.7-3.64c0.656,0.242,1.375,0.362,2.142,0.362
				c0.296,0,0.6-0.019,0.91-0.054l1.695,4.229l5.008-2.89l1.633-6.019c1.16-1.159,2.233-2.468,3.185-3.88l4.699-1.808l2.505-6.424
				l-2.961-2.38c0.113-0.812,0.185-1.618,0.183-2.401c0-0.687-0.058-1.321-0.146-1.929l2.999-5.895l-2.506-3.53l-4.547,3.521
				c-0.662-0.249-1.389-0.371-2.166-0.371c-0.351,0-0.713,0.025-1.083,0.076L235.497,98.941z M230.481,125.301
				c-1.897,0-3.199-1.503-3.199-4.11c0-3.683,2.601-8.164,5.807-10.017c0.939-0.542,1.825-0.799,2.61-0.799
				c1.898,0,3.2,1.502,3.2,4.11c0,3.681-2.602,8.164-5.81,10.017C232.152,125.044,231.266,125.301,230.481,125.301z"/>
		</g>
	</g>
	<g>
		<path style="fill:#333333;" d="M238.734,271.396c-0.263,0-0.517-0.134-0.658-0.377c-0.208-0.363-0.085-0.827,0.278-1.035
			l67.886-39.193c0.362-0.209,0.826-0.085,1.035,0.278c0.208,0.362,0.085,0.825-0.278,1.035l-67.886,39.191
			C238.992,271.365,238.862,271.396,238.734,271.396z"/>
		<path style="fill:#333333;" d="M238.734,276.673c-0.263,0-0.517-0.134-0.658-0.377c-0.208-0.363-0.085-0.827,0.278-1.035
			l67.886-39.195c0.362-0.211,0.826-0.086,1.035,0.278c0.208,0.362,0.085,0.825-0.278,1.035l-67.886,39.193
			C238.992,276.642,238.862,276.673,238.734,276.673z"/>
		<path style="fill:#333333;" d="M238.734,281.949c-0.263,0-0.517-0.134-0.658-0.377c-0.208-0.363-0.085-0.827,0.277-1.034
			l13.2-7.624c0.364-0.217,0.826-0.087,1.036,0.276c0.208,0.363,0.085,0.827-0.277,1.034l-13.199,7.624
			C238.992,281.918,238.862,281.949,238.734,281.949z"/>
		<path style="fill:#333333;" d="M264.132,267.282c-0.263,0-0.517-0.134-0.658-0.377c-0.208-0.363-0.085-0.827,0.278-1.035
			l42.487-24.529c0.362-0.21,0.826-0.086,1.035,0.278c0.208,0.362,0.085,0.825-0.278,1.035l-42.487,24.527
			C264.39,267.251,264.261,267.282,264.132,267.282z"/>
		<path style="fill:#333333;" d="M238.734,287.221c-0.263,0-0.517-0.134-0.658-0.377c-0.208-0.363-0.085-0.827,0.278-1.034
			l37.774-21.808c0.362-0.217,0.824-0.087,1.035,0.276c0.208,0.363,0.085,0.827-0.278,1.035l-37.774,21.808
			C238.992,287.19,238.862,287.221,238.734,287.221z"/>
		<path style="fill:#333333;" d="M293.124,255.819c-0.263,0-0.517-0.134-0.657-0.377c-0.209-0.363-0.085-0.827,0.278-1.035
			l13.495-7.791c0.362-0.217,0.826-0.087,1.035,0.276c0.208,0.363,0.085,0.827-0.278,1.035l-13.495,7.791
			C293.383,255.788,293.253,255.819,293.124,255.819z"/>
		<path style="fill:#333333;" d="M238.734,292.497c-0.263,0-0.517-0.134-0.658-0.377c-0.208-0.363-0.085-0.827,0.278-1.034
			l67.886-39.195c0.362-0.219,0.826-0.087,1.035,0.276s0.085,0.827-0.278,1.035l-67.886,39.195
			C238.992,292.467,238.862,292.497,238.734,292.497z"/>
		<path style="fill:#333333;" d="M238.734,297.769c-0.263,0-0.517-0.134-0.658-0.377c-0.208-0.363-0.085-0.827,0.278-1.035
			l34.238-19.765c0.359-0.217,0.825-0.085,1.035,0.276c0.209,0.363,0.085,0.827-0.278,1.035l-34.238,19.765
			C238.992,297.738,238.862,297.769,238.734,297.769z"/>
		<path style="fill:#333333;" d="M283.578,271.879c-0.263,0-0.517-0.134-0.658-0.377c-0.208-0.363-0.085-0.827,0.278-1.035
			l23.042-13.303c0.362-0.217,0.826-0.087,1.035,0.276c0.208,0.363,0.085,0.827-0.278,1.035l-23.042,13.303
			C283.836,271.849,283.706,271.879,283.578,271.879z"/>
	</g>
</g>
</svg>
