<svg width="628" height="592" viewBox="0 0 628 592" fill="none" xmlns="http://www.w3.org/2000/svg">
<path d="M173 14C124.691 37.9838 139 68.757 101 112.509C62.9999 156.262 1.00003 173.757 1 250.757C0.999977 309.451 52.1177 332.367 36 419C25.628 474.75 60 520 101 532C124 545 180 517.714 224 532C268 546.286 286.83 582.878 326 590C381 600 403.917 538.028 458 520C488 510 533.014 515.029 568 476C598.395 442.092 561.588 374.569 576 349C600.383 305.74 643 280 620 236C598.134 194.169 559.505 176.847 540 134.757C521 93.7569 527 45 474 22C439.86 7.18469 373 53.9999 326 37.9999C279 21.9999 243 -20.7525 173 14Z" fill="#a6a6a6"/>
</svg>
